<?xml version="1.0" encoding="utf-8"?>
<!-- Generator: Adobe Illustrator 23.0.6, SVG Export Plug-In . SVG Version: 6.00 Build 0)  -->
<svg version="1.1" id="add-user" xmlns="http://www.w3.org/2000/svg" xmlns:xlink="http://www.w3.org/1999/xlink" x="0px" y="0px"
	 viewBox="0 0 755.5 821.1" style="enable-background:new 0 0 755.5 821.1;" xml:space="preserve">
<style type="text/css">
	.st0{fill:none;stroke:#3E9437;stroke-width:28;stroke-miterlimit:10;}
</style>
<g>
	<path class="st0" d="M372.2,22c-17.2,9.2-23.7,23.7-22.6,42.7c0.6,9.2-1.5,18.7,0,27.7c3,18.8-5.6,22.4-22.6,24.5
		c-95.1,12.1-177.8,49.6-239.7,125.2c-47.5,58-69.1,125.4-70.7,200.4c7.2-0.7,10.1-5.9,14.2-9.1c37.7-29.4,78.6-49,128.2-41.2
		c35.9,5.7,66.8,22.9,94.5,45.4c9.6,7.8,13.8,6.6,21.9-1.7c49.5-50.8,121.3-59,178.8-22.1c14,9,23.8,30.1,38.7,28.5
		c14.7-1.5,27.2-18.5,41.7-27.1c60.1-35.4,119-32.6,176,7.6c9.1,6.4,17.6,13.6,26.8,20.7c4.7-46.4-15.3-120.5-43.5-165.4
		c-56.3-89.5-139.1-138.2-241-158.4c-15.3-3-36.7,2.2-44.4-8.7c-7.6-10.7-3.4-30.5-2.5-46.1c1.3-21.5-6.3-36.2-27.3-43"/>
	<path class="st0" d="M378.8,22c20.9,6.8,28.6,21.5,27.3,43c-0.9,15.7-5.1,35.4,2.5,46.1c7.7,10.9,29.2,5.7,44.4,8.7
		c101.8,20.3,184.7,69,241,158.4c28.2,44.9,48.3,119,43.5,165.4c-9.2-7.2-17.7-14.3-26.8-20.7c-57-40.2-115.9-43-176-7.6
		c-14.5,8.5-27,25.5-41.7,27.1c-14.9,1.6-24.7-19.5-38.7-28.5C396.8,377,325,385.1,275.5,436c-8.1,8.3-12.3,9.5-21.9,1.7
		C225.8,415.2,195,398,159,392.3c-49.5-7.8-90.4,11.9-128.2,41.2c-4.1,3.2-7,8.4-14.2,9.1c1.5-75,23.2-142.4,70.7-200.4
		C149.3,166.6,231.9,129.1,327,117c17-2.2,25.6-5.8,22.6-24.5c-1.5-9,0.6-18.5,0-27.7c-1.1-19,5.4-33.6,22.6-42.7
		C374.4,22,376.6,22,378.8,22z"/>
	<path class="st0" d="M226.1,707.7c0.9,4.2,1.7,8.4,2.5,12.6c10.2,57.2,75,82.7,122.4,48.5c19.1-13.8,22.7-33.9,23.1-55.1
		c0.8-45.1,0.7-90.2,1.2-135.3c0.5-42.2,0.7-131.4,2.2-173.6"/>
</g>
</svg>
