<?xml version="1.0" encoding="utf-8"?>
<!-- Generator: Adobe Illustrator 23.0.3, SVG Export Plug-In . SVG Version: 6.00 Build 0)  -->
<svg version="1.1" id="piggybank" xmlns="http://www.w3.org/2000/svg" xmlns:xlink="http://www.w3.org/1999/xlink" x="0px" y="0px"
	 viewBox="0 0 684 631.4" style="enable-background:new 0 0 684 631.4;" xml:space="preserve">
<style type="text/css">
	.st0{fill:#5856D6;}
</style>
<g>
	<circle class="st0" cx="157.9" cy="210.5" r="21"/>
	<circle class="st0" cx="223.6" cy="210.5" r="21"/>
	<rect x="315.7" y="52.6" class="st0" width="105.2" height="26.3"/>
	<path class="st0" d="M368.3,0c-78.9,0-152.6,28.9-207.8,78.9H78.9v110.5c-5.3,15.8-13.2,31.6-15.8,47.4H0v157.9h63.1
		c18.4,73.7,63.1,134.2,121,176.3v60.5H342v-26.3h52.6v26.3h157.9V571C631.4,513,684,420.9,684,315.7C684,142.1,542,0,368.3,0z
		 M536.7,549.9l-10.5,7.9V571v34.2H420.9v-26.3h-26.3H342h-26.3v26.3H210.5V571v-13.2l-10.5-7.9c-55.2-39.5-94.7-97.3-110.5-163.1
		l-5.3-18.4h-21H26.3V263.1h36.8h21l5.3-21c2.6-13.2,7.9-28.9,15.8-42.1v-2.6v-5.3v-86.8h55.2H171l7.9-7.9
		c52.6-44.7,118.4-71,189.4-71c160.5,0,289.4,128.9,289.4,289.4C657.7,407.8,613,497.2,536.7,549.9z"/>
</g>
</svg>
