<?xml version="1.0" encoding="utf-8"?>
<!-- Generator: Adobe Illustrator 23.0.3, SVG Export Plug-In . SVG Version: 6.00 Build 0)  -->
<svg version="1.1" id="add-user" xmlns="http://www.w3.org/2000/svg" xmlns:xlink="http://www.w3.org/1999/xlink" x="0px" y="0px"
	 viewBox="0 0 595.5 647.2" style="enable-background:new 0 0 595.5 647.2;" xml:space="preserve">
<style type="text/css">
	.st0{fill:#D9A23D;}
</style>
<g>
	<path class="st0" d="M299.6,323.7c56.6,0,110.5,21.6,151,53.9h10.7h29.6c-32.4-32.4-75.5-59.4-121.4-70.1c53.9-27,89-80.8,89-145.7
		C458.5,72.8,385.8,0,296.7,0S134.8,72.7,134.8,161.8c0,64.7,37.7,118.7,89,145.7C113.3,337.1,29.7,442.3,29.7,566.4v80.8h323.6v-27
		H56.9v-53.9C56.9,431.6,164.7,323.7,299.6,323.7z M164.7,161.9c0-75.5,59.4-134.8,134.8-134.8s134.8,59.4,134.8,134.8
		S375,296.7,299.6,296.7S164.7,237.4,164.7,161.9z M566.9,566.4c0-124.1-83.6-229.2-194.1-258.9c51.3-27,89-81,89-145.7
		C461.8,72.7,388.9,0,299.9,0c-89.1,0-161.8,72.8-161.7,161.8c0,64.8,35.1,118.7,89,145.7c-45.8,10.7-89,37.7-121.4,70.1h29.6h10.7
		c40.4-32.3,94.4-53.9,151-53.9c134.8,0,242.6,107.9,242.6,242.6v53.9H243.3v27h323.6 M291.8,301.9c-75.4,0-134.8-59.4-134.8-134.8
		S216.4,32.3,291.8,32.3s134.8,59.3,134.8,134.8S367.3,301.9,291.8,301.9z"/>
</g>
</svg>
