<?xml version="1.0" encoding="utf-8"?>
<!-- Generator: Adobe Illustrator 23.0.3, SVG Export Plug-In . SVG Version: 6.00 Build 0)  -->
<svg version="1.1" id="cloud" xmlns="http://www.w3.org/2000/svg" xmlns:xlink="http://www.w3.org/1999/xlink" x="0px" y="0px"
	 viewBox="0 0 595.4 389.2" style="enable-background:new 0 0 595.4 389.2;" xml:space="preserve">
<style type="text/css">
	.st0{fill:#3E9437;}
</style>
<path class="st0" d="M503.7,171.8c0-4.6,0-6.9,0-11.5C503.7,71,432.7,0,343.4,0C283.9,0,233.5,32,206,77.9
	c-13.8-6.9-29.8-9.1-45.8-9.1c-64.1,0-114.4,50.4-114.4,114.4c0,11.5,2.3,22.9,4.6,32C20.6,231.2,0,261,0,297.6
	c0,50.4,41.3,91.6,91.6,91.6h229.1h251.9c13.8-22.9,22.9-50.4,22.9-80.2C595.4,247.3,556.5,194.7,503.7,171.8z M558.7,366.4H320.6
	h-229c-38.9,0-68.7-29.8-68.7-68.7c0-25.2,13.8-50.4,38.9-61.8l18.3-9.1l-4.6-18.3c-4.6-9.1-6.9-18.3-6.9-25.2
	c0-50.4,41.3-91.6,91.6-91.6c11.5,0,25.2,2.3,36.6,6.9l18.3,9.1l11.5-18.3C249.5,48.1,295.3,23,343.4,23
	c75.5,0,137.4,61.8,137.4,137.4c0,2.3,0,4.6,0,9.1v2.3v16l16,6.9c48,20.6,77.9,64.1,77.9,116.8C572.5,329.8,567.9,348.1,558.7,366.4
	z"/>
</svg>
