<?xml version="1.0" encoding="utf-8"?>
<!-- Generator: Adobe Illustrator 24.0.2, SVG Export Plug-In . SVG Version: 6.00 Build 0)  -->
<svg version="1.1" id="Layer_1" xmlns="http://www.w3.org/2000/svg" xmlns:xlink="http://www.w3.org/1999/xlink" x="0px" y="0px"
	 viewBox="0 0 512 512" style="enable-background:new 0 0 512 512;" xml:space="preserve">
<style type="text/css">
	.st0{fill:#0072CF;}
</style>
<path class="st0" d="M507.3,185.7l-181-181c-6.2-6.2-16.4-6.2-22.6,0L281,27.3c-6.2,6.2-6.3,16.4,0,22.6c0,0,0,0,0,0l181,181
	c6.2,6.2,16.4,6.3,22.6,0c0,0,0,0,0,0l22.6-22.6C513.5,202.1,513.5,192,507.3,185.7L507.3,185.7z M327.8,252.1l-67.9-67.9l55.1-55.1
	l-45.3-45.3L160.1,193.6c-12.7,12.7-21.6,28.8-25.7,46.3l-27.7,120.3l-102,102c-6.2,6.2-6.3,16.4,0,22.6c0,0,0,0,0,0l22.6,22.6
	c6.2,6.2,16.4,6.3,22.6,0c0,0,0,0,0,0l102-102l120.3-27.8c17.5-4,33.6-12.9,46.3-25.6l109.7-109.7L382.9,197L327.8,252.1z
	 M273.2,306.7c-4.2,4.2-9.6,7.2-15.5,8.5l-79.3,18.3l18.3-79.3c1.4-5.8,4.3-11.2,8.6-15.4l9.3-9.3l67.9,67.9L273.2,306.7z"/>
</svg>
