<?xml version="1.0" encoding="utf-8"?>
<!-- Generator: Adobe Illustrator 24.0.2, SVG Export Plug-In . SVG Version: 6.00 Build 0)  -->
<svg version="1.1" id="Layer_1" xmlns="http://www.w3.org/2000/svg" xmlns:xlink="http://www.w3.org/1999/xlink" x="0px" y="0px"
	 viewBox="0 0 384 512" style="enable-background:new 0 0 384 512;" xml:space="preserve">
<style type="text/css">
	.st0{fill:#3E9437;}
</style>
<path class="st0" d="M377,105L279.1,7c-4.5-4.5-10.6-7-17-7H256v128h128v-6.1C384,115.6,381.5,109.5,377,105z M224,136V0H24
	C10.7,0,0,10.7,0,24v464c0,13.3,10.7,24,24,24h336c13.3,0,24-10.7,24-24V160H248C234.8,160,224,149.2,224,136z M64,72
	c0-4.4,3.6-8,8-8h80c4.4,0,8,3.6,8,8v16c0,4.4-3.6,8-8,8H72c-4.4,0-8-3.6-8-8V72z M64,152v-16c0-4.4,3.6-8,8-8h80c4.4,0,8,3.6,8,8
	v16c0,4.4-3.6,8-8,8H72C67.6,160,64,156.4,64,152z M208,415.9V440c0,4.4-3.6,8-8,8h-16c-4.4,0-8-3.6-8-8v-24.3
	c-11.3-0.6-22.3-4.5-31.4-11.4c-3.9-2.9-4.1-8.8-0.6-12.1l11.8-11.2c2.8-2.6,6.9-2.8,10.1-0.7c3.9,2.4,8.3,3.7,12.8,3.7h28.1
	c6.5,0,11.8-5.9,11.8-13.2c0-6-3.6-11.2-8.8-12.7l-45-13.5c-18.6-5.6-31.6-23.4-31.6-43.4c0-24.5,19.1-44.4,42.7-45.1V232
	c0-4.4,3.6-8,8-8h16c4.4,0,8,3.6,8,8v24.3c11.3,0.6,22.3,4.5,31.4,11.4c3.9,2.9,4.1,8.8,0.6,12.1L228.2,291
	c-2.8,2.6-6.9,2.8-10.1,0.7c-3.9-2.4-8.3-3.7-12.8-3.7h-28.1c-6.5,0-11.8,5.9-11.8,13.2c0,6,3.6,11.2,8.8,12.7l45,13.5
	c18.6,5.6,31.6,23.4,31.6,43.4C250.7,395.3,231.6,415.3,208,415.9L208,415.9z"/>
</svg>
