<?xml version="1.0" encoding="utf-8"?>
<!-- Generator: Adobe Illustrator 23.0.3, SVG Export Plug-In . SVG Version: 6.00 Build 0)  -->
<svg version="1.1" id="home" xmlns="http://www.w3.org/2000/svg" xmlns:xlink="http://www.w3.org/1999/xlink" x="0px" y="0px"
	 viewBox="0 0 705.1 676.1" style="enable-background:new 0 0 705.1 676.1;" xml:space="preserve">
<style type="text/css">
	.st0{fill:#007AFF;}
</style>
<g>
	<path class="st0" d="M705.1,349.9L352.5,0L0,349.9l18.4,18.4l44.7-42.1v349.9h578.8V326.2l42.1,42.1L705.1,349.9z M405.2,649.8
		H299.9V439.4h105.2v210.4H405.2z M615.6,649.8H431.5V413.1H273.6v236.8H89.5v-350l263-263.1l263.1,263.1V649.8z"/>
	<path class="st0" d="M273.6,255.2c0,44.7,34.2,78.9,78.9,78.9s78.9-34.2,78.9-78.9s-34.2-78.9-78.9-78.9S273.6,210.5,273.6,255.2z
		 M405.2,255.2c0,28.9-23.7,52.6-52.6,52.6S300,284.1,300,255.2s23.7-52.6,52.6-52.6S405.2,226.3,405.2,255.2z"/>
</g>
</svg>
