<?xml version="1.0" encoding="utf-8"?>
<!-- Generator: Adobe Illustrator 23.1.0, SVG Export Plug-In . SVG Version: 6.00 Build 0)  -->
<svg version="1.1" id="add-user" xmlns="http://www.w3.org/2000/svg" xmlns:xlink="http://www.w3.org/1999/xlink" x="0px" y="0px"
	 viewBox="0 0 595.5 647.2" style="enable-background:new 0 0 595.5 647.2;" xml:space="preserve">
<style type="text/css">
	.st0{fill:#0072CF;}
	.st1{fill:#FFFFFF;}
</style>
<g>
	<path class="st0" d="M256.9,292.6c42.6,0,83.2,16.3,113.7,40.6h8.1H401c-24.4-24.4-56.9-44.7-91.4-52.8c40.6-20.3,67-60.9,67-109.7
		c0-67-54.8-121.9-121.9-121.9s-121.9,54.8-121.9,121.9c0,48.7,28.4,89.4,67,109.7c-83.2,22.3-146.2,101.5-146.2,195v60.9h243.7
		v-20.3H74.1v-40.6C74.1,373.8,155.3,292.6,256.9,292.6z M155.3,170.7c0-56.9,44.7-101.5,101.5-101.5s101.5,44.7,101.5,101.5
		s-44.7,101.5-101.5,101.5S155.3,227.6,155.3,170.7z M458.2,475.4c0-93.5-63-172.6-146.2-195c38.6-20.3,67-61,67-109.7
		c0-67.1-54.9-121.9-121.9-121.9c-67.1,0-121.9,54.8-121.8,121.9c0,48.8,26.4,89.4,67,109.7c-34.5,8.1-67,28.4-91.4,52.8h22.3h8.1
		c30.4-24.3,71.1-40.6,113.7-40.6c101.5,0,182.7,81.3,182.7,182.7v40.6H214.5v20.3h243.7 M251,276.2c-56.8,0-101.5-44.7-101.5-101.5
		S194.2,73.1,251,73.1s101.5,44.7,101.5,101.5S307.9,276.2,251,276.2z"/>
</g>
<g>
	<g>
		<path class="st0" d="M431.1,451.2c27.7,0,54.2,10.6,74,26.4h5.2h14.5c-15.9-15.9-37-29.1-59.5-34.4c26.4-13.2,43.6-39.6,43.6-71.4
			c0-43.6-35.6-79.3-79.3-79.3s-79.4,35.6-79.4,79.3c0,31.7,18.5,58.2,43.6,71.4c-54.2,14.5-95.1,66.1-95.1,126.9v39.6h158.6v-13.2
			H312.2v-26.4C312.2,504,365,451.2,431.1,451.2z M365,371.9c0-37,29.1-66.1,66.1-66.1s66.1,29.1,66.1,66.1s-29.1,66.1-66,66.1
			S365,408.9,365,371.9z M562.2,570.1c0-60.8-41-112.3-95.1-126.9c25.1-13.2,43.6-39.7,43.6-71.4c0-43.7-35.7-79.3-79.4-79.3
			c-43.7,0-79.3,35.7-79.3,79.3c0,31.8,17.2,58.2,43.6,71.4c-22.4,5.2-43.6,18.5-59.5,34.4h14.5h5.2c19.8-15.8,46.3-26.4,74-26.4
			c66.1,0,118.9,52.9,118.9,118.9v26.4H403.6v13.2h158.6 M427.3,440.5c-37,0-66.1-29.1-66.1-66.1s29.1-66.1,66.1-66.1
			s66.1,29.1,66.1,66.1S464.3,440.5,427.3,440.5z"/>
	</g>
	<circle class="st1" cx="431.1" cy="371.9" r="66.1"/>
	<path class="st1" d="M428.2,596.5c-56,0-113.8-4.2-113.8-49.2s57.8-96.2,113.8-96.2s113.8,45.9,113.8,91
		C541.9,587.2,484.3,596.5,428.2,596.5z"/>
</g>
</svg>
