<?xml version="1.0" encoding="utf-8"?>
<!-- Generator: Adobe Illustrator 24.0.2, SVG Export Plug-In . SVG Version: 6.00 Build 0)  -->
<svg version="1.1" id="Layer_1" xmlns="http://www.w3.org/2000/svg" xmlns:xlink="http://www.w3.org/1999/xlink" x="0px" y="0px"
	 viewBox="0 0 640 512" style="enable-background:new 0 0 640 512;" xml:space="preserve">
<style type="text/css">
	.st0{fill:#3E9437;}
</style>
<path class="st0" d="M528,224H272c-8.8,0-16,7.2-16,16v144H64V144c0-8.8-7.2-16-16-16H16c-8.8,0-16,7.2-16,16v352
	c0,8.8,7.2,16,16,16h32c8.8,0,16-7.2,16-16v-48h512v48c0,8.8,7.2,16,16,16h32c8.8,0,16-7.2,16-16V336C640,274.1,589.9,224,528,224z
	 M136,96h126.1l27.6,55.2c5.9,11.8,22.7,11.8,28.6,0L368,51.8L390.1,96H512c8.8,0,16-7.2,16-16s-7.2-16-16-16H409.9L382.3,8.8
	C376.4-3,359.6-3,353.7,8.8L304,108.2l-19.9-39.8c-1.4-2.7-4.1-4.4-7.2-4.4H136c-4.4,0-8,3.6-8,8v16C128,92.4,131.6,96,136,96z
	 M160,352c35.3,0,64-28.7,64-64s-28.7-64-64-64s-64,28.7-64,64S124.7,352,160,352z"/>
</svg>
